<?xml version="1.0" encoding="UTF-8" standalone="no"?>
<!-- Created with Inkscape (http://www.inkscape.org/) -->

<svg
   version="1.1"
   id="svg3313"
   width="300.06229"
   height="572.25208"
   viewBox="0 0 300.06229 572.25207"
   sodipodi:docname="ccc2.svg"
   inkscape:version="1.2.2 (732a01da63, 2022-12-09, custom)"
   xmlns:inkscape="http://www.inkscape.org/namespaces/inkscape"
   xmlns:sodipodi="http://sodipodi.sourceforge.net/DTD/sodipodi-0.dtd"
   xmlns="http://www.w3.org/2000/svg"
   xmlns:svg="http://www.w3.org/2000/svg">
  <defs
     id="defs3317" />
  <sodipodi:namedview
     id="namedview3315"
     pagecolor="#ffffff"
     bordercolor="#000000"
     borderopacity="0.25"
     inkscape:showpageshadow="2"
     inkscape:pageopacity="0.0"
     inkscape:pagecheckerboard="0"
     inkscape:deskcolor="#d1d1d1"
     showgrid="false"
     inkscape:zoom="1.1942308"
     inkscape:cx="147.3752"
     inkscape:cy="280.51529"
     inkscape:window-width="1920"
     inkscape:window-height="1031"
     inkscape:window-x="0"
     inkscape:window-y="25"
     inkscape:window-maximized="1"
     inkscape:current-layer="layer6" />
  <g
     inkscape:groupmode="layer"
     id="layer6"
     inkscape:label="Layer 1">
    <path
       style="fill:#000000;stroke-width:1.33333"
       d="M 174.66667,637.29139 C 129.74892,633.03299 98.103284,621.80679 95.488132,609.20303 94.764693,605.71642 58.707949,113.47886 58.268641,101.09196 58.029807,94.357685 58.430864,93.06704 61.883331,89.459518 70.107029,80.866485 96.686999,73.320426 136,68.417778 c 24.5362,-3.059862 117.01064,-3.494468 140.66667,-0.661099 46.425,5.560495 76.34101,14.450206 81.24106,24.141242 1.47794,2.922953 -1.01202,40.628189 -16.69221,252.768739 -10.13609,137.13332 -18.45841,252.63332 -18.49404,256.66665 -0.0425,4.80838 -0.95247,8.78915 -2.64291,11.5615 -5.89564,9.66892 -26.13254,17.16766 -60.74524,22.50901 -15.99306,2.468 -66.63524,3.59703 -84.66666,1.88757 z"
       id="path3323"
       transform="translate(-58.212456,-65.858232)" />
    <g
       id="layer7"
       inkscape:label="02"
       style="fill:#f2f2f2">
      <path
         style="fill:#f2f2f2;stroke-width:1.33333"
         d="m 264,632.78069 c 26.05149,-4.5224 46.85841,-11.69599 52.72431,-18.17774 1.74732,-1.93077 2.82394,-5.67684 3.36842,-11.72037 0.44015,-4.88543 0.70568,-9.02627 0.59007,-9.20185 -0.1156,-0.17559 -1.36653,0.73281 -2.77983,2.01868 -3.16458,2.87924 -20.62489,10.96724 -23.67598,10.96724 -1.22484,0 -2.22699,0.53958 -2.22699,1.19908 0,0.65948 -2.55,1.48286 -5.66667,1.82972 -3.11666,0.34686 -13.76666,1.90646 -23.66666,3.4658 -23.37918,3.6824 -57.97732,4.93101 -82.66667,2.98337 -19.62625,-1.54824 -49.1408,-5.99488 -54,-8.13557 -1.46667,-0.64615 -4.16667,-1.58414 -6,-2.08444 -5.89915,-1.60984 -17.9082,-7.54696 -21.087683,-10.42547 l -3.087682,-2.79541 0.945844,7.3148 c 0.520213,4.02313 1.038526,7.91478 1.151805,8.64812 1.565715,10.13592 28.846666,20.78662 64.744386,25.27673 21.16064,2.64679 83.50969,1.9314 101.33333,-1.16269 z"
         id="path3351"
         transform="translate(-58.212456,-65.858232)" />
      <path
         style="fill:#f2f2f2;stroke-width:1.33333"
         d="m 277.33333,122.06931 c 40.18102,-4.70953 65.0333,-11.0998 76.34891,-19.6316 2.89565,-2.18329 3.99887,-7.296535 2.27089,-10.525286 -1.85253,-3.4615 -16.18137,-10.111803 -28.6198,-13.283032 -31.1654,-7.945749 -65.84098,-11.226138 -118.66666,-11.226138 -52.96078,0 -84.31658,2.886501 -115.506642,10.633119 -41.038607,10.192684 -43.536879,23.664927 -6.38486,34.431157 18.190072,5.27127 49.402402,9.83119 82.558162,12.06121 17.93964,1.2066 90.89696,-0.45482 108,-2.45943 z"
         id="path3361"
         transform="translate(-58.212456,-65.858232)" />
      <path
         style="fill:#f2f2f2;stroke-width:1.33333"
         d="m 84,170.19817 c 17.38438,-6.51792 49.00532,-11.80916 84.66667,-14.16758 73.8001,-4.88068 156.65506,4.82736 177.67889,20.81846 3.1402,2.38849 4.49847,2.82161 4.89679,1.56146 0.30318,-0.95912 1.52862,-16.74385 2.72322,-35.07718 1.1946,-18.33333 2.49831,-35.02701 2.89714,-37.09706 l 0.72514,-3.76373 -5.12726,3.22192 C 330.87644,119.25775 278.04088,127.04673 208,126.99075 142.46924,126.93838 93.299556,120.14129 69.550937,107.85192 l -9.880166,-5.11276 0.737918,4.96375 c 0.405855,2.73006 1.78473,20.35781 3.064164,39.17277 l 2.326247,34.20901 4.767116,-3.81856 C 73.188131,175.16591 79.233333,171.98534 84,170.19817 Z"
         id="path3359"
         transform="translate(-58.212456,-65.858232)" />
    </g>
    <g
       id="layer5"
       inkscape:label="01"
       transform="translate(-58.212456,-65.858232)"
       style="fill:#00ffff">
      <path
         style="fill:#00ffff;stroke-width:1.33333"
         d="m 261.33333,213.25775 c 42.25844,-3.59401 73.99655,-11.25641 85.01002,-20.52364 14.8839,-12.52398 -11.57403,-24.89857 -69.01002,-32.27653 -21.12817,-2.71403 -92.73758,-3.88416 -116.66666,-1.90637 -55.92014,4.62189 -94.000003,15.73462 -94.000003,27.43174 0,20.57636 103.280503,35.04702 194.666663,27.2748 z"
         id="path3357" />
      <path
         style="fill:#00ffff;stroke-width:1.33333"
         d="m 110.67138,569.5885 c 11.05743,-4.94739 25.95006,-8.83963 45.32862,-11.8468 21.37595,-3.31713 84.82981,-3.31448 105.33333,0.004 27.59266,4.46639 45.88734,10.292 55.6104,17.70815 3.1712,2.41878 4.56494,2.87574 4.94991,1.62292 0.29472,-0.95912 6.60971,-85.74385 14.03331,-188.41052 7.4236,-102.66666 13.84536,-189.06666 14.2706,-191.99999 l 0.77314,-5.33333 -3.16546,2.9319 c -9.23719,8.55564 -36.96488,15.79988 -79.13856,20.67602 -19.63366,2.27005 -100.36635,2.27005 -120,0 -40.55935,-4.6895 -69.685415,-12.08332 -78.296197,-19.87598 -1.312752,-1.18802 -2.62843,-1.91372 -2.923729,-1.61266 -0.2953,0.30106 5.841103,87.38247 13.636449,193.51426 l 14.173358,192.96687 3.376437,-3.23483 c 1.857042,-1.77916 7.274322,-4.97885 12.038392,-7.11041 z"
         id="path3355" />
      <path
         style="fill:#00ffff;stroke-width:1.33333"
         d="m 253.33333,612.5779 c 9.9,-1.14704 18.2,-2.64632 18.44444,-3.33172 0.24446,-0.68541 2.65651,-1.2462 5.36014,-1.2462 11.62934,0 33.64369,-8.47857 40.9281,-15.76299 12.777,-12.777 -13.81685,-26.65708 -63.39934,-33.0899 -19.98594,-2.59298 -67.68616,-2.96156 -87.33334,-0.67486 -48.43115,5.63687 -76.362615,18.09578 -70.316751,31.36502 3.422191,7.51088 30.027501,18.02637 46.289951,18.29564 5.67351,0.094 7.04954,0.41706 4.69347,1.10212 -2.37709,0.69117 0.68288,1.43841 10.66667,2.60477 7.7,0.89956 15.2,1.82189 16.66666,2.04964 9.10867,1.41437 62.17396,0.52212 78,-1.31152 z"
         id="path3353" />
    </g>
  </g>
</svg>
