<?xml version="1.0" encoding="UTF-8" standalone="no"?>
<!-- Created with Inkscape (http://www.inkscape.org/) -->

<svg
   version="1.1"
   id="svg2708"
   width="133.87086"
   height="81.598541"
   viewBox="0 0 133.87086 81.598541"
   sodipodi:docname="Bull4d.svg"
   inkscape:version="1.2.2 (732a01da63, 2022-12-09, custom)"
   xmlns:inkscape="http://www.inkscape.org/namespaces/inkscape"
   xmlns:sodipodi="http://sodipodi.sourceforge.net/DTD/sodipodi-0.dtd"
   xmlns="http://www.w3.org/2000/svg"
   xmlns:svg="http://www.w3.org/2000/svg">
  <defs
     id="defs2712" />
  <sodipodi:namedview
     id="namedview2710"
     pagecolor="#ffffff"
     bordercolor="#000000"
     borderopacity="0.25"
     inkscape:showpageshadow="2"
     inkscape:pageopacity="0.0"
     inkscape:pagecheckerboard="0"
     inkscape:deskcolor="#d1d1d1"
     showgrid="false"
     inkscape:zoom="5.9590605"
     inkscape:cx="50.511318"
     inkscape:cy="40.610428"
     inkscape:window-width="1920"
     inkscape:window-height="1031"
     inkscape:window-x="0"
     inkscape:window-y="25"
     inkscape:window-maximized="1"
     inkscape:current-layer="layer2" />
  <g
     inkscape:groupmode="layer"
     id="layer2"
     inkscape:label="Layer 1">
    <path
       id="path3189"
       style="fill:#000000;stroke-width:0.32"
       d="M 62.595364 5.1199998 C 61.768371 5.1199998 60.197298 5.3211281 59.10513 5.5672654 C 58.01296 5.8134033 56.327034 6.1687965 55.359036 6.3563279 C 54.391038 6.5438596 52.304362 7.0629408 50.720364 7.5106248 C 49.136368 7.9583091 47.119894 8.5270635 46.239896 8.7742967 C 44.70776 9.2047449 40.442503 11.131246 38.079739 12.459844 C 37.463741 12.806223 36.74413 13.166085 36.48013 13.260625 C 34.85718 13.841807 29.432546 18.512083 24.374661 23.680547 C 22.169027 25.934402 19.688669 29.457247 19.345364 30.825078 C 19.192913 31.432497 18.924394 31.680547 18.415677 31.680547 C 16.876546 31.680547 12.186304 35.401412 11.704739 37.004765 C 11.506658 37.664275 11.571739 37.681874 13.534818 37.524297 C 15.465091 37.369353 15.607033 37.406214 16.265286 38.243047 C 17.203881 39.436278 17.169694 41.383098 16.171536 43.563359 C 15.273169 45.525653 14.402646 49.322713 14.396146 51.30164 C 14.390377 53.069654 14.121079 53.996731 13.550443 54.215703 C 13.293823 54.31418 12.264342 54.047987 11.263333 53.625859 C 10.262324 53.203733 9.3314461 52.928981 9.1930207 53.014531 C 8.8896776 53.202009 9.1608825 54.969373 9.8082551 57.024297 C 10.955249 60.665146 15.214026 61.918172 18.681302 59.633672 C 20.037822 58.739895 20.248099 58.778347 22.302396 60.284062 C 22.867687 60.698398 24.036234 61.128337 24.915677 61.245 C 25.790796 61.361089 26.829318 61.715834 27.222318 62.034062 C 27.925394 62.603381 27.92781 62.637012 27.407864 64.162969 C 27.117232 65.01593 26.880521 66.133786 26.880521 66.647344 C 26.880521 69.033652 25.263794 72.875282 22.314114 77.500859 C 20.83748 79.816468 18.560208 84.985551 18.560208 86.02039 C 18.560208 86.245341 19.587098 86.415887 21.359036 86.487187 C 28.42232 86.771399 28.319974 86.819894 28.319974 83.305547 L 28.319974 80.799687 L 30.347318 80.639531 C 32.952357 80.432286 32.757546 80.681351 34.903958 74.782109 C 35.368234 73.506079 36.043633 72.480666 37.064114 71.502812 C 37.880901 70.720142 38.677406 70.080937 38.833646 70.080937 C 39.183154 70.080937 41.495468 68.662475 43.32388 67.327031 C 44.07199 66.780626 45.204061 66.235302 45.839505 66.116094 C 47.453092 65.813381 48.367518 64.967294 48.601224 63.559453 C 48.904546 61.732225 49.985066 61.199078 52.277005 61.748906 C 53.845387 62.125152 54.140603 62.114241 54.853177 61.647344 C 55.880289 60.974373 56.962574 60.979346 58.396146 61.662969 C 59.391104 62.137431 59.773644 62.154663 61.444974 61.809453 C 62.858918 61.517405 63.528899 61.507995 64.019193 61.77039 C 64.707191 62.138598 65.919583 64.578467 65.919583 65.594609 C 65.919583 65.91458 66.548583 67.018296 67.316068 68.047734 C 69.158019 70.51837 69.474232 71.163399 69.964505 73.440312 C 70.726551 76.979387 70.39379 79.618628 68.626614 84.055547 C 68.194066 85.141561 67.839505 86.189318 67.839505 86.385625 C 67.839505 86.634435 69.330743 86.731552 72.76138 86.703984 C 77.575409 86.665296 77.689548 86.648175 78.019193 85.924687 C 78.267418 85.379882 78.235761 84.782984 77.898099 83.661015 C 77.310547 81.708728 77.318291 81.628597 78.062161 81.823125 C 78.45825 81.926703 78.98063 81.687859 79.501614 81.166875 C 80.220563 80.447927 80.318861 80.085791 80.312161 78.174687 C 80.307962 76.978689 80.162018 75.423607 79.987943 74.719609 C 79.813866 74.015611 79.58159 71.476777 79.470364 69.077031 C 79.280913 64.989487 79.312335 64.620711 79.982083 63.237187 C 80.375286 62.424939 80.825815 61.760625 80.984036 61.760625 C 81.142257 61.760625 81.361978 61.194772 81.472318 60.504765 C 81.671887 59.256718 81.684954 59.24901 83.853177 58.717656 C 85.051914 58.42389 86.283191 57.905735 86.589505 57.567265 C 87.134785 56.964739 87.165358 56.972769 88.058255 57.995 C 89.14168 59.23536 90.606656 61.856349 90.968411 63.200078 C 91.110558 63.728076 91.348879 65.235332 91.497708 66.549687 C 91.96606 70.685903 91.389093 72.033251 86.630521 77.920781 C 84.970087 79.975149 82.358643 84.3786 82.034818 85.668828 L 81.837552 86.453984 L 86.652005 86.346562 C 89.300184 86.287886 91.570835 86.134845 91.69888 86.006719 C 91.826922 85.878588 92.001689 85.059645 92.085599 84.186406 C 92.25934 82.37825 92.582677 82.142814 94.26138 82.606328 C 95.322793 82.899396 95.525658 82.855627 96.157864 82.188359 C 96.5474 81.777222 97.198855 80.504232 97.60513 79.360234 C 98.757125 76.116426 101.29186 70.964458 102.16958 70.080937 C 102.60669 69.640939 103.6138 68.807479 104.40786 68.229375 C 105.20194 67.651269 106.03634 66.715189 106.26333 66.149297 C 106.49033 65.583403 107.01418 64.707904 107.4274 64.203984 C 108.03358 63.464764 108.18026 62.907541 108.18326 61.323125 C 108.18496 60.243047 108.21998 58.85514 108.26138 58.23914 C 108.36508 56.696597 108.22213 56.526263 107.32193 57.116094 C 106.38897 57.727388 105.91958 57.514036 105.91958 56.479375 C 105.91958 55.422283 106.39325 55.230626 107.94497 55.659062 C 109.00526 55.951806 109.5844 55.934823 110.75943 55.577031 L 112.23794 55.127812 L 114.9938 57.243047 C 116.50979 58.407058 118.32834 59.754859 119.03482 60.237187 C 119.7413 60.719513 120.31866 61.366968 120.31802 61.67664 C 120.31722 61.98631 119.67093 63.60816 118.88052 65.280156 C 117.71277 67.750363 117.44207 68.655815 117.44107 70.110234 C 117.4383 73.545031 119.22031 76.986399 121.66372 78.266484 C 122.13898 78.515466 123.39977 78.719609 124.46451 78.719609 C 125.52923 78.719609 126.40005 78.808837 126.40005 78.916875 C 126.40005 79.024911 126.11933 79.636286 125.77701 80.27625 C 125.13263 81.480847 122.88052 86.401581 122.88052 86.604375 C 122.88052 86.792863 128.04215 86.735912 130.6149 86.518437 C 133.98002 86.233978 134.2399 85.977286 134.2399 82.946172 C 134.2399 80.486077 134.24175 80.47885 135.25161 80.034062 C 137.04303 79.245063 137.45264 77.731098 137.36294 72.223515 C 137.29766 68.215622 137.38284 67.193874 137.91568 65.612187 C 138.26666 64.570304 138.52993 62.982778 138.50943 62.030156 C 138.48917 61.089288 138.58268 59.644744 138.71646 58.819219 C 139.01519 56.975772 138.72809 55.680547 138.02115 55.680547 C 137.73112 55.680547 137.58191 55.59243 137.68911 55.485234 C 137.79631 55.378037 137.59573 54.559724 137.2438 53.666875 L 136.60318 52.043828 L 137.63833 50.006719 C 138.20708 48.886193 138.80031 47.887782 138.95865 47.789922 C 139.11699 47.692063 139.56005 47.898508 139.94302 48.246953 C 140.97132 49.182548 142.06375 49.674633 142.62857 49.45789 C 143.0646 49.290574 143.05096 49.183203 142.5231 48.600469 C 141.84295 47.849624 141.77903 45.492472 142.23599 38.024297 C 142.44555 34.599349 142.39566 33.629299 141.91177 31.784062 C 140.07713 24.787895 135.6179 19.957886 128.59927 17.36414 C 122.40793 15.07612 116.86571 13.822209 111.83951 13.571172 C 99.233248 12.941542 98.420342 12.808772 78.720364 8.1375779 C 71.346057 6.3890062 64.567719 5.1199998 62.595364 5.1199998 z M 133.12076 26.883672 C 133.44901 26.892314 134.6804 29.074752 135.21255 30.590703 C 135.8455 32.393818 135.8951 35.823386 135.33169 38.83289 C 134.96705 40.780633 134.13101 42.376391 132.40982 44.411015 C 131.40926 45.593771 131.28707 46.2417 132.01333 46.52039 C 132.43429 46.681929 132.4015 46.851147 131.79263 47.674687 C 131.03724 48.696407 130.56021 48.911183 130.56021 48.227422 C 130.56021 47.396646 131.56323 40.187773 131.71255 39.946172 C 132.26035 39.059815 132.94974 33.892432 132.95474 30.639531 C 132.95762 28.571397 133.03276 26.881372 133.12076 26.883672 z M 127.07779 71.512578 C 127.4555 71.493222 128.07068 73.416089 127.94302 74.311406 C 127.81799 75.188317 126.97471 75.413582 126.40201 74.723515 C 126.0693 74.322565 126.06146 73.963505 126.36099 72.96375 C 126.56803 72.272722 126.86614 71.627166 127.0231 71.530156 C 127.04041 71.51946 127.05921 71.51353 127.07779 71.512578 z "
       transform="translate(-9.0680207,-5.1199998)" />
    <path
       style="display:inline;fill:#ff0000;stroke-width:0.32"
       d="m 27.78928,52.357563 c 0.04491,-1.187443 -0.0744,-1.485939 -0.778299,-1.947152 -0.795483,-0.521222 -0.823159,-0.518925 -0.641573,0.0532 0.104375,0.328855 0.213564,1.205076 0.242641,1.947152 0.04025,1.027235 0.180704,1.349232 0.588527,1.349232 0.411326,0 0.547971,-0.32552 0.588704,-1.402435 z"
       id="path3246"
       transform="translate(-9.0680207,-5.1199998)" />
    <path
       style="fill:#ffcc00;stroke-width:0.32"
       d="m 38.500448,67.562078 c 1.249786,-0.824032 2.404496,-2.625085 2.644237,-4.12433 0.391718,-2.449673 -1.414941,-4.217276 -3.898525,-3.814246 -2.436522,0.395392 -2.488109,1.816496 -0.06594,1.816496 2.314601,0 3.116521,0.910349 2.371865,2.692566 -0.70352,1.68376 -1.712195,2.427434 -3.292425,2.427434 -1.583399,0 -1.769319,0.408169 -0.499661,1.096969 1.16543,0.632256 1.663782,0.614999 2.740448,-0.09489 z"
       id="path3282"
       transform="translate(-9.0680207,-5.1199998)" />
  </g>
</svg>
